<svg xmlns="http://www.w3.org/2000/svg" xmlns:xlink="http://www.w3.org/1999/xlink" aria-hidden="true" role="img" class="iconify iconify--logos" width="31.88" height="32" preserveAspectRatio="xMidYMid meet" viewBox="0 0 256 257"><defs><linearGradient id="IconifyId1813088fe1fbc01fb466" x1="-.828%" x2="57.584%" y1="7.652%" y2="78.411%"><stop offset="0%" stop-color="#41D1FF"></stop><stop offset="100%" stop-color="#BD34FE"></stop></linearGradient><linearGradient id="IconifyId1813088fe1fbc01fb467" x1="43.376%" x2="50.316%" y1="2.242%" y2="89.03%"><stop offset="0%" stop-color="#FFBD4F"></stop><stop offset="100%" stop-color="#FF980E"></stop></linearGradient></defs><path fill="url(#IconifyId1813088fe1fbc01fb466)" d="M255.153 37.948L139.082 252.275c-3.527 6.527-12.878 6.56-16.446.058L.874 37.958c-3.586-6.533 1.389-14.46 8.857-14.204l127.203 4.355c2.233.076 4.464.177 6.692.303c16.856.956 33.732 1.955 50.607 2.992c31.803 1.958 52.589 3.258 62.015 3.885c3.044.203 5.296 2.953 4.905 5.984l-.001.001c-.656 5.076-1.697 12.995-2.653 19.927c-2.183 15.832-4.479 32.164-6.648 46.504c-2.233 14.756-6.322 29.15-12.095 42.892c-13.85 33.048-39.51 59.782-71.774 75.608c-25.434 12.49-54.005 18.223-82.41 16.515c-28.405-1.708-55.796-10.776-79.295-26.165l-.01-.007c-.005-.003-.009-.007-.014-.01c20.359 13.315 47.352 22.185 76.279 23.918c28.405 1.707 56.976-4.026 82.41-16.516c32.264-15.826 57.924-42.56 71.774-75.608c5.773-13.742 9.862-28.136 12.095-42.892c2.169-14.34 4.465-30.672 6.648-46.504c.956-6.932 1.997-14.851 2.653-19.927l.001-.001c.391-3.031-1.861-5.781-4.905-5.984Z"></path></svg>
